<svg viewBox="0 0 18 18" fill="none" xmlns="http://www.w3.org/2000/svg">
<path fill-rule="evenodd" clip-rule="evenodd" d="M3.1875 1.875C2.46263 1.875 1.875 2.46263 1.875 3.1875V14.8125C1.875 15.5374 2.46263 16.125 3.1875 16.125H14.8125C15.5374 16.125 16.125 15.5374 16.125 14.8125V3.1875C16.125 2.46263 15.5374 1.875 14.8125 1.875H3.1875ZM3.375 14.625V3.375H14.625V14.625H3.375ZM6.0006 4.49993C5.17217 4.49993 4.5006 5.1715 4.5006 5.99993C4.5006 6.82836 5.17217 7.49993 6.0006 7.49993C6.82902 7.49993 7.5006 6.82836 7.5006 5.99993C7.5006 5.1715 6.82902 4.49993 6.0006 4.49993ZM7.5006 8.99993C7.5006 8.1715 8.17217 7.49993 9.0006 7.49993C9.82902 7.49993 10.5006 8.1715 10.5006 8.99993C10.5006 9.82836 9.82902 10.4999 9.0006 10.4999C8.17217 10.4999 7.5006 9.82836 7.5006 8.99993ZM6.0006 10.4999C5.17217 10.4999 4.5006 11.1715 4.5006 11.9999C4.5006 12.8284 5.17217 13.4999 6.0006 13.4999C6.82902 13.4999 7.5006 12.8284 7.5006 11.9999C7.5006 11.1715 6.82902 10.4999 6.0006 10.4999ZM10.5006 5.99993C10.5006 5.1715 11.1722 4.49993 12.0006 4.49993C12.829 4.49993 13.5006 5.1715 13.5006 5.99993C13.5006 6.82836 12.829 7.49993 12.0006 7.49993C11.1722 7.49993 10.5006 6.82836 10.5006 5.99993ZM12.0006 10.4999C11.1722 10.4999 10.5006 11.1715 10.5006 11.9999C10.5006 12.8284 11.1722 13.4999 12.0006 13.4999C12.829 13.4999 13.5006 12.8284 13.5006 11.9999C13.5006 11.1715 12.829 10.4999 12.0006 10.4999Z" fill="currentcolor"/>
</svg>
